<svg width="24" height="24" viewBox="0 0 24 24" fill="none" xmlns="http://www.w3.org/2000/svg">
<path d="M9 6H6V17H18V6H15V4H20V17H21C21.5523 17 22 17.4477 22 18V21C22 21.5523 21.5523 22 21 22H3C2.44772 22 2 21.5523 2 21V18C2 17.4477 2.44772 17 3 17H4V4H9V6ZM12.5 11C12.5 11.8284 11.8284 12.5 11 12.5H9C8.72386 12.5 8.5 12.7239 8.5 13C8.5 13.2761 8.72386 13.5 9 13.5H15C15.8284 13.5 16.5 14.1716 16.5 15C16.5 15.8284 15.8284 16.5 15 16.5H8V15.5H15C15.2761 15.5 15.5 15.2761 15.5 15C15.5 14.7239 15.2761 14.5 15 14.5H9C8.17157 14.5 7.5 13.8284 7.5 13C7.5 12.1716 8.17157 11.5 9 11.5H11C11.2761 11.5 11.5 11.2761 11.5 11V10H12.5V11ZM12 9L10 7.5H14L12 9ZM14 7H10V3H14V7Z" fill="black"/>
</svg>
