<svg width="64" height="64" viewBox="0 0 64 64" fill="none" xmlns="http://www.w3.org/2000/svg">
<path d="M61.4181 19.4075L61.466 19.6745V19.8641V20.0537V20.4329V21.1913V22.7081V25.7416V30.9582V31.8088L61.4181 32.0758L61.2803 32.3263L61.0687 32.5471L60.8049 32.7302" stroke="currentColor" stroke-width="0.5"/>
<path d="M60.8049 20.5959L61.0687 20.4128L61.1745 20.3024L61.3492 20.0668L61.4421 19.808" stroke="currentColor" stroke-width="0.5"/>
<path d="M39.0766 46.2957L22.723 55.7375L22.3481 55.9538" stroke="currentColor" stroke-width="0.5"/>
<path d="M39.2064 46.2056L39.0767 46.2957" stroke="currentColor" stroke-width="0.5"/>
<path d="M21.4202 54.6441L21.2942 54.5715L21.0424 54.426L20.5387 54.1352L4.08838 44.6376" stroke="currentColor" stroke-width="0.5"/>
<path d="M61.4179 19.4075L61.349 19.2823L61.1743 19.0465L60.8047 18.7531L44.3544 9.25552L44.0374 9.10321" stroke="currentColor" stroke-width="0.5"/>
<path d="M40.1808 44.6376L23.7304 54.1352L23.2267 54.426L22.9748 54.5715L22.8489 54.6441" stroke="currentColor" stroke-width="0.5"/>
<path d="M59.9745 21.0584L59.8291 21.1592" stroke="currentColor" stroke-width="0.5"/>
<path d="M43.3472 43.83L43.1912 43.905" stroke="currentColor" stroke-width="0.5"/>
<path d="M42.9153 43.9731L42.7588 43.9825" stroke="currentColor" stroke-width="0.5"/>
<path d="M42.4554 43.9463L42.3262 43.905L42.1702 43.83" stroke="currentColor" stroke-width="0.5"/>
<path d="M39.3406 45.1225V45.447V45.7021L39.3408 45.8283" stroke="currentColor" stroke-width="0.5"/>
<path d="M60.1396 20.7527L60.1198 20.641L59.8295 20.3445L43.4646 10.8962L43.2898 10.8123L43.1312 10.7616L42.759 10.717L42.5669 10.7286L42.3867 10.7616L42.0533 10.8962L5.06417 32.2519L4.9188 32.3528L4.83102 32.4444L4.75391 32.6593" stroke="currentColor" stroke-width="0.5"/>
<path d="M21.9209 55.9538L21.5461 55.7375L5.19238 46.2957" stroke="currentColor" stroke-width="0.5"/>
<path d="M59.8307 34.2982L59.7009 34.3882" stroke="currentColor" stroke-width="0.5"/>
<path d="M59.9649 33.9209L59.9646 33.7948V33.5396V33.2151" stroke="currentColor" stroke-width="0.5"/>
<path d="M23.7304 54.1352L23.4134 54.2874L23.2221 54.3485L23.0309 54.4096L22.814 54.4494L22.7055 54.4693L22.1345 54.5168L21.9033 54.503L21.672 54.4892L21.455 54.4494L21.2381 54.4096L20.8556 54.2874L20.5386 54.1352" stroke="currentColor" stroke-width="0.5"/>
<path d="M40.1809 44.6376L44.3548 42.2277" stroke="currentColor" stroke-width="0.5"/>
<path d="M59.7009 34.3882L43.3473 43.83L42.9724 44.0464" stroke="currentColor" stroke-width="0.5"/>
<path d="M23.7304 42.0009L23.4134 42.1532L23.2221 42.2143L23.0309 42.2754L22.814 42.3152L22.7055 42.335L22.1345 42.3826L21.9033 42.3688L21.672 42.3549L21.455 42.3152L21.238 42.2754" stroke="currentColor" stroke-width="0.5"/>
<path d="M5.19249 46.2957L5.06274 46.2056" stroke="currentColor" stroke-width="0.5"/>
<path d="M4.92822 45.8283V45.7007V45.4455V45.1225" stroke="currentColor" stroke-width="0.5"/>
<path d="M59.6509 21.2622L43.4642 11.9168L43.2895 11.8329L43.1309 11.7822L42.7586 11.7377L42.5666 11.7492L42.3864 11.7822L42.053 11.9168L5.24243 33.1694" stroke="currentColor" stroke-width="0.5"/>
<path d="M41.8623 8.98102L41.6711 9.04211L41.5754 9.07264L41.1628 9.25549L4.08828 30.6605L3.82446 30.8435" stroke="currentColor" stroke-width="0.5"/>
<path d="M22.3482 55.9539L22.2521 56L21.9209 55.9539" stroke="currentColor" stroke-width="0.5"/>
<path d="M3.54378 44.1084L3.47492 43.9831L3.45096 43.8496L3.427 43.5035V43.2909V42.8656V42.0151V37.649V34.6155V33.0987V32.3403V31.9611V31.7715V31.6767L3.47492 31.3149L3.61265 31.0644" stroke="currentColor" stroke-width="0.5"/>
<path d="M42.9725 44.0464L42.8763 44.0926L42.5452 44.0464" stroke="currentColor" stroke-width="0.5"/>
<path d="M44.0375 9.10324L43.655 8.98102" stroke="currentColor" stroke-width="0.5"/>
<path d="M22.7232 54.7168L22.5662 54.7921" stroke="currentColor" stroke-width="0.5"/>
<path d="M22.2908 54.8599L22.1318 54.8691" stroke="currentColor" stroke-width="0.5"/>
<path d="M21.8314 54.833L21.7021 54.7917L21.5461 54.7168" stroke="currentColor" stroke-width="0.5"/>
<path d="M4.08824 44.6376L3.82443 44.4545L3.61279 44.2337" stroke="currentColor" stroke-width="0.5"/>
<path d="M42.545 44.0464L42.1702 43.83L41.8748 43.6595" stroke="currentColor" stroke-width="0.5"/>
<path d="M5.06376 33.0666L4.91699 32.9644" stroke="currentColor" stroke-width="0.5"/>
<path d="M60.8051 32.7302L44.3547 42.2277" stroke="currentColor" stroke-width="0.5"/>
<path d="M52.0888 25.6282L43.1365 20.4596L43.0142 20.4008" stroke="currentColor" stroke-width="0.5"/>
<path d="M42.5035 20.4008L42.3812 20.4596L12.8047 37.5356" stroke="currentColor" stroke-width="0.5"/>
<path d="M3.82438 30.8435L3.61279 31.0644" stroke="currentColor" stroke-width="0.5"/>
<path d="M58.9637 21.6591L43.1365 12.5213L43.0142 12.4625" stroke="currentColor" stroke-width="0.5"/>
<path d="M42.5033 12.4625L42.381 12.5213L5.92969 33.5664" stroke="currentColor" stroke-width="0.5"/>
<path d="M23.7302 42.001L60.8048 20.5959" stroke="currentColor" stroke-width="0.5"/>
<path d="M21.2381 42.2754L20.8556 42.1532L20.5386 42.0009" stroke="currentColor" stroke-width="0.5"/>
<path d="M22.7229 55.7375L22.5669 55.8124" stroke="currentColor" stroke-width="0.5"/>
<path d="M22.291 55.8806L22.1345 55.8899" stroke="currentColor" stroke-width="0.5"/>
<path d="M21.8314 55.8537L21.7021 55.8124L21.5461 55.7375" stroke="currentColor" stroke-width="0.5"/>
<path d="M4.08838 32.5034L20.5387 42.0009" stroke="currentColor" stroke-width="0.5"/>
<path d="M4.08831 32.5034L3.8245 32.3203L3.61287 32.0995L3.47513 31.8489L3.45117 31.7155" stroke="currentColor" stroke-width="0.5"/>
<path d="M43.6551 8.98104L43.4382 8.94126L43.3297 8.9214L42.7587 8.87384L42.5274 8.88767L42.2962 8.9015L41.8623 8.98104" stroke="currentColor" stroke-width="0.5"/>
</svg>
