<svg width="80" height="80" viewBox="0 0 80 80" fill="none" xmlns="http://www.w3.org/2000/svg">
<path d="M24.0862 52.8023L24.035 52.8269L23.8584 52.8023" stroke="currentColor" stroke-width="0.5" />
<path d="M35.0833 59.1516L35.032 59.1762L34.8555 59.1516" stroke="currentColor" stroke-width="0.5" />
<path d="M46.5488 64.6861L46.4145 64.7636L46.3474 64.8024" stroke="currentColor" stroke-width="0.5" />
<path d="M55.1464 53.2432L55.0688 53.297" stroke="currentColor" stroke-width="0.5" />
<path d="M46.8177 58.0608L46.6486 58.142L46.5467 58.1746L46.4447 58.2072L46.329 58.2284L46.2711 58.239L45.9667 58.2643L45.8434 58.257L45.7201 58.2496L45.6044 58.2284L45.4887 58.2072L45.2848 58.142L45.1157 58.0608" stroke="currentColor" stroke-width="0.5" />
<path d="M3.87268 34.2492L3.79443 34.1947" stroke="currentColor" stroke-width="0.5" />
<path d="M13.6571 27.8208L13.4532 27.7556L13.3375 27.7344L13.2796 27.7238L12.9752 27.6985L12.8519 27.7058L12.7286 27.7132L12.4972 27.7556L12.3952 27.7882L12.3442 27.8045L12.1242 27.902L3.35262 32.9662L3.21197 33.0638L3.09912 33.1816" stroke="currentColor" stroke-width="0.5" />
<path d="M55.0697 60.3028L55.0005 60.3509" stroke="currentColor" stroke-width="0.5" />
<path d="M46.0806 65.5008L46.0294 65.5254L45.8528 65.5008" stroke="currentColor" stroke-width="0.5" />
<path d="M13.2888 46.3377L13.2056 46.3776" stroke="currentColor" stroke-width="0.5" />
<path d="M13.0586 46.414L12.9751 46.419" stroke="currentColor" stroke-width="0.5" />
<path d="M12.8132 46.3997L12.7443 46.3776L12.6611 46.3377" stroke="currentColor" stroke-width="0.5" />
<path d="M24.2861 52.6869L24.2029 52.7269" stroke="currentColor" stroke-width="0.5" />
<path d="M24.0556 52.7632L23.9722 52.7682" stroke="currentColor" stroke-width="0.5" />
<path d="M23.8106 52.7489L23.7416 52.7269L23.6584 52.6869" stroke="currentColor" stroke-width="0.5" />
<path d="M35.2831 59.0361L35.2 59.0761" stroke="currentColor" stroke-width="0.5" />
<path d="M35.0529 59.1124L34.9695 59.1174" stroke="currentColor" stroke-width="0.5" />
<path d="M34.8078 59.0981L34.7389 59.0761L34.6558 59.0361" stroke="currentColor" stroke-width="0.5" />
<path d="M46.8177 64.531L46.6487 64.6122L46.5467 64.6448L46.4448 64.6774L46.2712 64.7092L45.9668 64.7345" stroke="currentColor" stroke-width="0.5" />
<path d="M45.6623 64.7092L45.6044 64.6986L45.4887 64.6774L45.2848 64.6122L45.1157 64.531" stroke="currentColor" stroke-width="0.5" />
<path d="M3.35265 33.9489L3.212 33.8513L3.09916 33.7335L3.0257 33.5999L3.01294 33.5287" stroke="currentColor" stroke-width="0.5" />
<path d="M46.2804 65.3854L46.1973 65.4253" stroke="currentColor" stroke-width="0.5" />
<path d="M46.0502 65.4617L45.9668 65.4667" stroke="currentColor" stroke-width="0.5" />
<path d="M45.8049 65.4474L45.736 65.4253L45.6528 65.3854" stroke="currentColor" stroke-width="0.5" />
<path d="M46.2803 64.8412L46.1965 64.8813" stroke="currentColor" stroke-width="0.5" />
<path d="M46.0501 64.9175L45.9653 64.9224" stroke="currentColor" stroke-width="0.5" />
<path d="M45.8049 64.9031L45.736 64.8811L45.6528 64.8412" stroke="currentColor" stroke-width="0.5" />
<path d="M3.94128 41.3031L3.87207 41.2551" stroke="currentColor" stroke-width="0.5" />
<path d="M3.80029 41.054V40.9859V40.8499V40.6776" stroke="currentColor" stroke-width="0.5" />
<path d="M14.9384 47.6524L14.8691 47.6044" stroke="currentColor" stroke-width="0.5" />
<path d="M14.7976 47.4032V47.3352V47.1991V47.0269" stroke="currentColor" stroke-width="0.5" />
<path d="M25.9356 54.0016L25.8665 53.9536" stroke="currentColor" stroke-width="0.5" />
<path d="M25.7947 53.7524V53.6844V53.5483V53.3761" stroke="currentColor" stroke-width="0.5" />
<path d="M55.1411 59.7254V59.8983V60.0344L55.1412 60.1017" stroke="currentColor" stroke-width="0.5" />
<path d="M36.933 60.3508L36.8638 60.3028" stroke="currentColor" stroke-width="0.5" />
<path d="M36.792 60.1017V60.0336V59.8976V59.7253" stroke="currentColor" stroke-width="0.5" />
<path d="M55.9291 52.5764L55.9163 52.6476L55.8429 52.7812L55.73 52.8989L55.5894 52.9965" stroke="currentColor" stroke-width="0.5" />
<path d="M44.1493 21.497L44.0718 21.5508" stroke="currentColor" stroke-width="0.5" />
<path d="M44.9189 20.6167L44.8822 20.5499L44.789 20.4242L44.592 20.2677L35.8204 15.2035L35.6514 15.1223" stroke="currentColor" stroke-width="0.5" />
<path d="M24.8233 32.6639L24.6542 32.7451L24.5523 32.7777L24.4503 32.8102L24.3346 32.8314L24.2768 32.8421L23.9723 32.8674L23.849 32.86L23.7257 32.8526L23.61 32.8314L23.4943 32.8102L23.2904 32.7451L23.1213 32.6639" stroke="currentColor" stroke-width="0.5" />
<path d="M14.87 27.9L14.7917 27.8455" stroke="currentColor" stroke-width="0.5" />
<path d="M35.6514 15.1223L35.4474 15.0571L35.3317 15.0359L35.2739 15.0253L34.9694 15L34.8461 15.0074L34.7228 15.0147L34.4914 15.0571L34.3895 15.0897L34.3385 15.106L34.1184 15.2035L14.3497 26.617L14.209 26.7146L14.0962 26.8324" stroke="currentColor" stroke-width="0.5" />
<path d="M14.3498 27.5996L14.2091 27.502L14.0963 27.3843L14.0228 27.2507L14.01 27.1795" stroke="currentColor" stroke-width="0.5" />
<path d="M39.9443 23.9337L35.1707 21.1777L35.1055 21.1464" stroke="currentColor" stroke-width="0.5" />
<path d="M34.8332 21.1464L34.768 21.1777L18.9973 30.2829" stroke="currentColor" stroke-width="0.5" />
<path d="M43.9766 21.6057L35.3456 16.6226L35.2524 16.5778L35.1679 16.5508L34.9694 16.527L34.8669 16.5332L34.7709 16.5508L34.5931 16.6226L14.9651 27.9548" stroke="currentColor" stroke-width="0.5" />
<path d="M43.61 21.8173L35.1707 16.9449L35.1055 16.9135" stroke="currentColor" stroke-width="0.5" />
<path d="M34.8334 16.9135L34.7682 16.9449L15.3318 28.1665" stroke="currentColor" stroke-width="0.5" />
<path d="M44.2369 21.334L44.2263 21.2744L44.0715 21.1163L35.3455 16.0783L35.2523 16.0336L35.1677 16.0066L34.9693 15.9828L34.8668 15.989L34.7708 16.0066L34.593 16.0783L14.8698 27.4655L14.7922 27.5193L14.7454 27.5682L14.7043 27.6828" stroke="currentColor" stroke-width="0.5" />
<path d="M44.592 21.2504L44.7327 21.1528L44.7891 21.0939L44.8823 20.9682L44.9318 20.8303" stroke="currentColor" stroke-width="0.5" />
<path d="M66.0668 53.9536L65.9976 54.0016" stroke="currentColor" stroke-width="0.5" />
<path d="M57.0779 59.1516L57.0267 59.1762L56.8501 59.1516" stroke="currentColor" stroke-width="0.5" />
<path d="M77.1408 40.5447L77.0632 40.5985" stroke="currentColor" stroke-width="0.5" />
<path d="M77.9107 39.6644L77.874 39.5976L77.7808 39.472L77.5837 39.3155L46.8177 21.5527L46.6487 21.4715" stroke="currentColor" stroke-width="0.5" />
<path d="M56.486 51.858L56.2821 51.7928L56.113 51.7116" stroke="currentColor" stroke-width="0.5" />
<path d="M25.8671 34.2492L25.7888 34.1947" stroke="currentColor" stroke-width="0.5" />
<path d="M46.6487 21.4715L46.4447 21.4064L46.329 21.3852L46.2712 21.3746L45.9668 21.3492L45.8434 21.3566L45.7202 21.364L45.4888 21.4064" stroke="currentColor" stroke-width="0.5" />
<path d="M25.2064 33.0638L25.0935 33.1816" stroke="currentColor" stroke-width="0.5" />
<path d="M77.0641 47.6044L76.9949 47.6524" stroke="currentColor" stroke-width="0.5" />
<path d="M68.075 52.8023L68.0238 52.8269L67.8472 52.8023" stroke="currentColor" stroke-width="0.5" />
<path d="M57.2775 59.0361L57.1943 59.0761" stroke="currentColor" stroke-width="0.5" />
<path d="M57.0473 59.1124L56.9639 59.1174" stroke="currentColor" stroke-width="0.5" />
<path d="M56.8022 59.0981L56.7333 59.0761L56.6501 59.0361" stroke="currentColor" stroke-width="0.5" />
<path d="M57.2776 58.4919L57.1938 58.532" stroke="currentColor" stroke-width="0.5" />
<path d="M57.0472 58.5682L56.9624 58.5731" stroke="currentColor" stroke-width="0.5" />
<path d="M56.8022 58.5539L56.7333 58.5319L56.6501 58.4919" stroke="currentColor" stroke-width="0.5" />
<path d="M25.347 33.9489L25.2064 33.8513L25.0936 33.7335L25.0201 33.5999L25.0073 33.5287" stroke="currentColor" stroke-width="0.5" />
<path d="M68.2748 52.6869L68.1917 52.7269" stroke="currentColor" stroke-width="0.5" />
<path d="M68.0446 52.7632L67.9612 52.7682" stroke="currentColor" stroke-width="0.5" />
<path d="M67.7993 52.7489L67.7304 52.7269L67.6472 52.6869" stroke="currentColor" stroke-width="0.5" />
<path d="M66.1384 53.3762V53.5491V53.6851L66.1386 53.7524" stroke="currentColor" stroke-width="0.5" />
<path d="M77.1356 47.4032L77.1355 47.3359V47.1999V47.0269" stroke="currentColor" stroke-width="0.5" />
<path d="M57.815 58.1818L57.6459 58.263L57.544 58.2955L57.442 58.3281L57.3263 58.3493L57.2685 58.3599L56.964 58.3853L56.7174 58.3705L56.6017 58.3493L56.486 58.3281L56.2821 58.263L56.113 58.1818" stroke="currentColor" stroke-width="0.5" />
<path d="M77.9232 39.878L77.9105 39.9491L77.837 40.0827L77.7241 40.2005L77.5835 40.2981" stroke="currentColor" stroke-width="0.5" />
<path d="M13.4464 46.2466L13.2888 46.3376L13.0889 46.453" stroke="currentColor" stroke-width="0.5" />
<path d="M12.8611 46.4531L12.6612 46.3377L3.94116 41.3031" stroke="currentColor" stroke-width="0.5" />
<path d="M12.1241 45.4833L3.35254 40.419" stroke="currentColor" stroke-width="0.5" />
<path d="M12.124 45.4833L14.3496 46.7683" stroke="currentColor" stroke-width="0.5" />
<path d="M3.3525 40.4191L3.21185 40.3214L3.099 40.2037L3.02554 40.0701L3.0085 39.9752L3 39.8144V39.701V39.4742V39.0207V36.6927V35.0751V34.2663V33.8619V33.6598V33.5587V33.5081L3.02554 33.3152L3.099 33.1816" stroke="currentColor" stroke-width="0.5" />
<path d="M24.4436 52.5959L24.2861 52.6869L24.0862 52.8023" stroke="currentColor" stroke-width="0.5" />
<path d="M23.8584 52.8023L23.6585 52.6869L14.9385 47.6524" stroke="currentColor" stroke-width="0.5" />
<path d="M23.1212 51.8325L14.3496 46.7683" stroke="currentColor" stroke-width="0.5" />
<path d="M23.1213 51.8326L25.347 53.1175" stroke="currentColor" stroke-width="0.5" />
<path d="M35.4407 58.9452L35.2831 59.0361L35.0833 59.1515" stroke="currentColor" stroke-width="0.5" />
<path d="M34.8555 59.1515L34.6556 59.0361L25.9355 54.0016" stroke="currentColor" stroke-width="0.5" />
<path d="M34.1185 58.1818L25.3469 53.1175" stroke="currentColor" stroke-width="0.5" />
<path d="M34.1187 58.1819L36.3441 59.4667" stroke="currentColor" stroke-width="0.5" />
<path d="M55.5894 59.4667L55.73 59.3691L55.7864 59.3103L55.9163 59.1178L55.9291 59.0466L55.9419 58.8621V58.5219V58.0684V55.7403V54.1228V53.314V52.9096V52.7075V52.6064V52.5558L55.9163 52.3629" stroke="currentColor" stroke-width="0.5" />
<path d="M55.5892 59.4667L46.8177 64.531L46.5491 64.6861" stroke="currentColor" stroke-width="0.5" />
<path d="M13.657 27.8207L13.826 27.902L55.5892 52.0139L55.7298 52.1115L55.8427 52.2293L55.9162 52.3629" stroke="currentColor" stroke-width="0.5" />
<path d="M46.8176 58.0608L55.5892 52.9966" stroke="currentColor" stroke-width="0.5" />
<path d="M45.5856 64.8024L45.5185 64.7636L45.3842 64.6861L45.1156 64.531L36.344 59.4667" stroke="currentColor" stroke-width="0.5" />
<path d="M3.35254 33.9489L45.1157 58.0608" stroke="currentColor" stroke-width="0.5" />
<path d="M55.0005 60.3509L46.2804 65.3854L46.0806 65.5008" stroke="currentColor" stroke-width="0.5" />
<path d="M45.8525 65.5008L45.6527 65.3854L36.9326 60.3509" stroke="currentColor" stroke-width="0.5" />
<path d="M8 36.6321L12.7734 33.8762L12.8387 33.8448" stroke="currentColor" stroke-width="0.5" />
<path d="M13.1111 33.8448L13.1763 33.8762L50.9414 55.6799" stroke="currentColor" stroke-width="0.5" />
<path d="M54.6072 53.5635L13.1763 29.6433L13.1111 29.612" stroke="currentColor" stroke-width="0.5" />
<path d="M12.8389 29.612L12.7737 29.6433L4.33447 34.5157" stroke="currentColor" stroke-width="0.5" />
<path d="M54.9738 53.3518L13.3512 29.321L13.2581 29.2763L13.1735 29.2492L12.975 29.2255L12.8726 29.2316L12.7765 29.2492L12.5987 29.321L3.96777 34.3041" stroke="currentColor" stroke-width="0.5" />
<path d="M55.2342 53.0802L55.2237 53.0206L55.0689 52.8625L13.3512 28.7768L13.2581 28.732L13.1735 28.705L12.975 28.6813L12.8725 28.6874L12.7765 28.705L12.5987 28.7768L3.8727 33.8148L3.7952 33.8686L3.74836 33.9174L3.70728 34.032" stroke="currentColor" stroke-width="0.5" />
<path d="M13.9973 28.0007V27.9171V27.5127V27.3105V27.2094V27.1588L14.0229 26.9659L14.0963 26.8323" stroke="currentColor" stroke-width="0.5" />
<path d="M44.9189 20.6167L44.9445 20.7591V20.8602V20.9613V21.1635V21.5679V21.6516" stroke="currentColor" stroke-width="0.5" />
<path d="M24.8232 32.6639L44.592 21.2504" stroke="currentColor" stroke-width="0.5" />
<path d="M14.3496 27.5996L23.1212 32.6639" stroke="currentColor" stroke-width="0.5" />
<path d="M24.9944 34.35V34.2663V33.8619V33.6598V33.5587V33.5081L25.0199 33.3152L25.0934 33.1816" stroke="currentColor" stroke-width="0.5" />
<path d="M65.9975 54.0016L57.2775 59.0361L57.0776 59.1515" stroke="currentColor" stroke-width="0.5" />
<path d="M66.5863 53.1175L57.8147 58.1818L57.5462 58.3369L57.4119 58.4144L57.3447 58.4531" stroke="currentColor" stroke-width="0.5" />
<path d="M66.5864 53.1175L68.812 51.8326" stroke="currentColor" stroke-width="0.5" />
<path d="M56.8499 59.1515L56.65 59.0361L55.9417 58.6272" stroke="currentColor" stroke-width="0.5" />
<path d="M56.5829 58.4531L56.5157 58.4144L56.3814 58.3368L56.1128 58.1818L55.9417 58.0829" stroke="currentColor" stroke-width="0.5" />
<path d="M77.9105 39.6644L77.9361 39.8068V39.9079V40.009V40.2112V40.6156V41.4243V43.0419V45.3699V45.8234V46.1636V46.277L77.9105 46.4193L77.8371 46.5529L77.7242 46.6707L77.5836 46.7683L68.812 51.8325" stroke="currentColor" stroke-width="0.5" />
<path d="M57.8149 51.7116L77.5837 40.2981" stroke="currentColor" stroke-width="0.5" />
<path d="M57.8148 51.7116L57.6457 51.7928L57.5438 51.8254L57.4418 51.858L57.3261 51.8792L57.2683 51.8898L56.9638 51.9151L56.8405 51.9077L56.7172 51.9004L56.6015 51.8792L56.4858 51.858" stroke="currentColor" stroke-width="0.5" />
<path d="M25.3469 33.9489L56.1129 51.7116" stroke="currentColor" stroke-width="0.5" />
<path d="M45.4887 21.4064L45.3867 21.439L45.3357 21.4552L45.1157 21.5527L25.3469 32.9662L25.2063 33.0638" stroke="currentColor" stroke-width="0.5" />
<path d="M76.9949 47.6524L68.2748 52.6869L68.075 52.8023" stroke="currentColor" stroke-width="0.5" />
<path d="M67.8471 52.8023L67.6473 52.6869L67.4897 52.596" stroke="currentColor" stroke-width="0.5" />
<path d="M72.936 42.9814L46.168 27.5269L46.1028 27.4956" stroke="currentColor" stroke-width="0.5" />
<path d="M45.8304 27.4956L45.7651 27.5269L29.9944 36.6322" stroke="currentColor" stroke-width="0.5" />
<path d="M76.6017 40.865L46.168 23.2941L46.1028 23.2628" stroke="currentColor" stroke-width="0.5" />
<path d="M45.8304 23.2628L45.7652 23.2941L26.3289 34.5157" stroke="currentColor" stroke-width="0.5" />
<path d="M25.9624 34.3041L45.5905 22.9718L45.6837 22.927L45.8643 22.8824L45.9155 22.8793L46.0692 22.8824L46.2498 22.927L46.343 22.9718L76.9684 40.6533" stroke="currentColor" stroke-width="0.5" />
<path d="M77.2286 40.3817L77.2181 40.3221L77.0633 40.164L46.3428 22.4276L46.2497 22.3828L46.1651 22.3558L45.9666 22.3321L45.8642 22.3382L45.7681 22.3558L45.5903 22.4276L25.8671 33.8148L25.7896 33.8686L25.7428 33.9174L25.7017 34.032" stroke="currentColor" stroke-width="0.5" />
<path d="M13.0889 46.4531L13.0377 46.4777L12.8611 46.4531" stroke="currentColor" stroke-width="0.5" />
</svg>
